<?xml version="1.0" encoding="UTF-8"?>
<svg width="512" height="512" viewBox="0 0 512 512" fill="none" xmlns="http://www.w3.org/2000/svg">
  <circle cx="256" cy="256" r="240" fill="white" stroke="#4a6fb5" stroke-width="32"/>
  
  <!-- Hour marks -->
  <line x1="256" y1="70" x2="256" y2="90" stroke="#4a6fb5" stroke-width="10" stroke-linecap="round" />
  <line x1="349" y1="106" x2="339" y2="123" stroke="#4a6fb5" stroke-width="10" stroke-linecap="round" transform="rotate(30 256 256)" />
  <line x1="406" y1="163" x2="389" y2="173" stroke="#4a6fb5" stroke-width="10" stroke-linecap="round" transform="rotate(60 256 256)" />
  <line x1="442" y1="256" x2="422" y2="256" stroke="#4a6fb5" stroke-width="10" stroke-linecap="round" />
  <line x1="406" y1="349" x2="389" y2="339" stroke="#4a6fb5" stroke-width="10" stroke-linecap="round" transform="rotate(120 256 256)" />
  <line x1="349" y1="406" x2="339" y2="389" stroke="#4a6fb5" stroke-width="10" stroke-linecap="round" transform="rotate(150 256 256)" />
  <line x1="256" y1="442" x2="256" y2="422" stroke="#4a6fb5" stroke-width="10" stroke-linecap="round" />
  <line x1="163" y1="406" x2="173" y2="389" stroke="#4a6fb5" stroke-width="10" stroke-linecap="round" transform="rotate(210 256 256)" />
  <line x1="106" y1="349" x2="123" y2="339" stroke="#4a6fb5" stroke-width="10" stroke-linecap="round" transform="rotate(240 256 256)" />
  <line x1="70" y1="256" x2="90" y2="256" stroke="#4a6fb5" stroke-width="10" stroke-linecap="round" />
  <line x1="106" y1="163" x2="123" y2="173" stroke="#4a6fb5" stroke-width="10" stroke-linecap="round" transform="rotate(300 256 256)" />
  <line x1="163" y1="106" x2="173" y2="123" stroke="#4a6fb5" stroke-width="10" stroke-linecap="round" transform="rotate(330 256 256)" />
  
  <!-- Clock Hands -->
  <line x1="256" y1="256" x2="256" y2="136" stroke="#333" stroke-width="14" stroke-linecap="round" />
  <line x1="256" y1="256" x2="354" y2="230" stroke="#666" stroke-width="8" stroke-linecap="round" />
  
  <!-- Center point -->
  <circle cx="256" cy="256" r="15" fill="#4a6fb5"/>
</svg>